<svg xmlns="http://www.w3.org/2000/svg" viewBox="0 0 63.32 62.36"><defs><style>.cls-1{fill:#4f46e5;}</style></defs><g id="Layer_2" data-name="Layer 2"><g id="LOGO"><path class="cls-1" d="M14.28,57.16A28.93,28.93,0,0,0,42.1,7.74,31.72,31.72,0,0,1,14.28,57.16"/><path class="cls-1" d="M51.26,51.58A24.24,24.24,0,0,0,45.05,7.14,31.72,31.72,0,0,1,51.3,51.56l0,0M31.66,62.36,30.08,30.64l1.58-25A9.9,9.9,0,0,0,35.4,8.82V27.47L34.14,59Z"/><path class="cls-1" d="M31,3.68l.63.63a4.57,4.57,0,0,0,8-4.31,4.31,4.31,0,0,1-5,3.42A4.33,4.33,0,0,1,31.66,1.3"/><path class="cls-1" d="M49,57.16A28.93,28.93,0,0,1,21.23,7.74,31.72,31.72,0,0,0,49,57.16"/><path class="cls-1" d="M12.06,51.58A24.23,24.23,0,0,1,18.28,7.14,31.71,31.71,0,0,0,12,51.56l0,0m19.6,10.75,1.59-31.72-1.59-25a9.9,9.9,0,0,1-3.74,3.14V27.47L29.19,59Z"/><path class="cls-1" d="M32.3,3.68l-.64.63a4.57,4.57,0,0,1-8-4.31,4.31,4.31,0,0,0,5,3.42A4.33,4.33,0,0,0,31.66,1.3"/></g></g></svg>