<svg xmlns="http://www.w3.org/2000/svg" viewBox="0 0 72 60"><defs><style>.cls-1{fill:#4f46e5;}</style></defs><g id="Layer_2" data-name="Layer 2"><g id="LOGO"><g id="Symbole_à_gauche" data-name="Symbole à gauche"><path class="cls-1" d="M33.71,4.67c-.45,3.88.08,6.59,2.42,9.74C35.2,9.14,34.37,4.73,37.45,0c1.2,4.84,3.94,7.83,7,10.63a9.64,9.64,0,0,1,3.07,7c.14,4.36-1.34,5.84-5.68,5.84H31.45c-5.07,0-7.59-3.67-5.74-8.46a22.24,22.24,0,0,1,1.7-3c1.33,1.4,1,3.58,3.19,4.65C29.86,12.53,29.14,8.48,33.71,4.67Z"/><path class="cls-1" d="M36.52,42c-2-4.4-3.46-7.53-6.49-9.55-.5-.33-1.19-.88-.87-1.67s1.13-1.05,2-1c3.3,0,6.6,0,9.91,0,.84,0,1.72.08,2,1,.25.78-.31,1.33-.84,1.73C39.49,34.6,37.7,37.42,36.52,42Z"/><path class="cls-1" d="M37.15,25.06c3,0,6.06,0,9.09,0,1.13,0,2.38.28,2.29,1.74-.08,1.13-1.2,1.47-2.17,1.48q-9.3,0-18.59-.06c-1,0-2.1-.34-2.09-1.53,0-1.43,1.26-1.62,2.39-1.63C31.1,25.05,34.14,25.07,37.15,25.06Z"/></g><path class="cls-1" d="M69.79,46.64a5,5,0,0,0-6.09-1A4.32,4.32,0,0,0,61.15,50c.26,2.83,2.78,3.23,5.24,4.07-3,2.36-5.11,1.47-6.75-.73A5.77,5.77,0,0,1,61.28,45c1.88-1.08,2.63-1.94,1.91-4.15a13.14,13.14,0,0,0-12.61-9,12.62,12.62,0,0,0-12.43,9.65c-.32,1.4-.28,3-2.16,2.88-1.51-.1-1.64-1.61-1.94-2.83C32.67,36,28.84,32.72,23,31.92A12.83,12.83,0,0,0,9.81,38.64c-1.32,2.45-2.67,4.77,1.28,6.65,2.67,1.27,3.1,5.72,1.2,8.12-1.68,2.11-3.8,3-6.4.88,5.31-2.15,6.46-5.57,3-8.29-2.6-2-6.67-.65-8.22,2.74a8.13,8.13,0,0,0,3,9.9A7.76,7.76,0,0,0,13.74,57.2c.91-1,1-3.34,3.17-2.59,2.92,1,6.7.06,8.28,4.21,2.13-5.9.55-10.79-4.44-13.55.4,2,2.1,3.59-.2,4.79-1.79,1-3.18.06-4.46-1.13a7.11,7.11,0,0,1-.25-10,7.87,7.87,0,0,1,9.87-1.13c2.59,1.67,5.18,8.7,3.91,11.26-1.88,3.82-.48,6.58,2.39,9.13,2.26,2,4.79,2.46,7.23.92,3-1.89,5.35-4.93,3.79-8.34s-.17-5.83.38-8.67C44,39,46,37.36,49,36.71a7.27,7.27,0,0,1,7.73,2.81A6.66,6.66,0,0,1,57.22,47c-1,2.08-2.55,3.85-5.12,3.32C49,49.65,50.88,47.17,51,45.23c-4.89,2.92-6.65,9.2-3.79,13.5.6-3.3,3.3-2.85,5.41-3.68,3-1.18,4.31.28,6,2.4,2.61,3.29,7.55,3.23,10.67.27C72.7,54.5,72.91,49.61,69.79,46.64Zm-34,8.16a2.59,2.59,0,0,1,1.08-5.07,1,1,0,0,1,.23.06,2.5,2.5,0,0,1,1.67,1.66,2.61,2.61,0,0,1-3,3.35Z"/></g></g></svg>