<svg xmlns="http://www.w3.org/2000/svg" viewBox="0 0 50 40"><defs><style>.cls-1{fill:#818cf8;}.cls-1,.cls-2{fill-rule:evenodd;}.cls-2{fill:#f43f5e;}</style></defs><g id="Layer_2" data-name="Layer 2"><g id="Layer_1-2" data-name="Layer 1"><path class="cls-1" d="M39,.09l5.31,0S49.81,13.66,50,19.68C50.37,32.44,37.83,40,33.16,40l-17.62-.11S.15,38.59,0,21.32C.11,6.2,14.32,3.57,17,3.64s6.81.79,8.41,2.52l1.33,6.23S23.42,8.07,15.5,8.87,5,16.7,4.89,21.48,8.72,33.66,15.5,34.31l18,.11c4,0,10.68-6,11-12.79.33-6.25-5-18.48-5.61-21.54Z"/><path class="cls-1" d="M24.79.09l5.3,0s5.09,13.77,5.27,19.79a18.37,18.37,0,0,1-4,12.75h-7A13.35,13.35,0,0,0,30.32,22c.27-6.39-4.66-18.79-5.53-21.92Z"/><path class="cls-1" d="M32,0l5.31,0s5.32,15.6,5.57,20.09c.45,7.83-5.57,12.25-9.59,12.32,2.43-3.88,3.8-6.69,3.64-11.22C36.69,14,32.66,3.09,32,0Z"/><path class="cls-2" d="M13.09,31.88,9.94,29.77l1.26-1.71a9.54,9.54,0,0,1-1.93-2.83l-.17.06-2,.54-.75-3.72,2.14-.33c0-.1,0-.2,0-.3a9.3,9.3,0,0,1,.65-3.43h0L7.35,17l2.08-3.17,1.62,1.21A9.36,9.36,0,0,1,14,13l0-.08-.54-2,3.7-.76.31,2.06h.25a9,9,0,0,1,3.53.71l0-.08,1-1.8,3.15,2.1-1.28,1.74a9.14,9.14,0,0,1,2.1,3.19l.12,0,2-.54.75,3.73L27,21.53h-.06a9.35,9.35,0,0,1-.79,3.72l0,0,1.78,1-2.08,3.17-1.74-1.3h0a9.13,9.13,0,0,1-3.21,2v0l.54,2-3.7.76-.32-2.16v-.06A9.06,9.06,0,0,1,14.13,30l0,0-1,1.8ZM17.7,15.63a5.85,5.85,0,1,1-5.8,5.85,5.83,5.83,0,0,1,5.8-5.85Z"/><path class="cls-2" d="M18.49,18s0,.34-.3.38c-.94.12-1.52-.23-2.35.69-.38.42-.19.84-.53.92s-1.17-.08-1.17.19-.19.3.3.38a1.58,1.58,0,0,0,.68,0l-.07.72a10.94,10.94,0,0,0-1.52,1.3c-.3.42-.15.65-.41.92a1.17,1.17,0,0,1-.61.3.28.28,0,0,0,.23.35c.3.07.38-.12.64-.08s7.24,0,7.8.08a1.6,1.6,0,0,0,1.37-1.26c0-.54.23-1,0-1.26a5.63,5.63,0,0,0-1.44-1.07,4.13,4.13,0,0,1-.91-.57c-.42-.31-1-.69-1.1-.92a.89.89,0,0,1,.12-.73c.11-.13,1-.83.11-1.18-.68-.26-.66-.17-.8.84Zm.72,2.29c.84.46.84.15,1.14.61s.68.15.87.23.34.15.08.42-.38.27.07.46.27-.27.53,0a.75.75,0,0,1,.12,1c-.27.46-.11.24-.46.46-.51.31-2.1-.11-2.19-.12-.32,0,0,.46-.42.23s-.57-.11-.49-.72.22-.58,0-.77.32-.66-.3-.91c-.19-.08,0-.92.41-1a1,1,0,0,1,.68.08ZM16.3,21.4s.94-.53,1.21-.11.38.42.08.72,0,.57-.27.84-.34.19-.42.38-1.25-.38-1.47-.11-.12.49-.27.53-.95,0-1.25,0,.8-1.37,1.36-1.41.35-.12.84-.23.95-.15.6-.38-.49-.23-.41-.27Z"/></g></g></svg>