<svg xmlns="http://www.w3.org/2000/svg" viewBox="0 0 75 60"><defs><style>.cls-1{fill:#4f46e5;fill-rule:evenodd;}</style></defs><g id="Layer_2" data-name="Layer 2"><g id="LOGO"><g id="Layer_2-2" data-name="Layer 2"><g id="Layer_1-2" data-name="Layer 1-2"><path class="cls-1" d="M58.49.14h8S74.7,20.49,75,29.52C75.54,48.66,56.74,60,49.73,60l-26.42-.17S.22,57.89,0,32C.16,9.3,21.48,5.35,25.5,5.46S35.71,6.65,38.11,9.24l2,9.34s-5-6.48-16.85-5.28S7.5,25.05,7.33,32.22s5.75,18.27,15.92,19.25l27,.16c6,0,16-9,16.5-19.18.49-9.38-7.5-27.72-8.41-32.31Z"/><path class="cls-1" d="M37.18.14h8S52.76,20.79,53,29.82A27.59,27.59,0,0,1,47,49H36.53a20,20,0,0,0,8.94-16c.41-9.58-7-28.19-8.29-32.88Z"/><path class="cls-1" d="M48,0h8s8,23.4,8.35,30.14C65,41.88,56,48.51,49.93,48.61c3.64-5.82,5.7-10,5.46-16.83C55,21,49,4.63,48,0Z"/><path class="cls-1" d="M19.63,47.82l-4.72-3.16,1.89-2.57a14.28,14.28,0,0,1-2.9-4.24l-.25.09-3,.81L9.52,33.17l3.21-.5v-.45a13.89,13.89,0,0,1,1-5.14h0L11,25.5l3.12-4.76,2.43,1.82A14.12,14.12,0,0,1,21,19.5v-.12l-.81-3,5.55-1.14.46,3.09h.38a13.58,13.58,0,0,1,5.29,1.06v-.12l1.5-2.7,4.72,3.15-1.92,2.61a13.68,13.68,0,0,1,3.15,4.79h.18l3-.81,1.13,5.59-3.14.4H40.4a14.11,14.11,0,0,1-1.18,5.58h0l2.67,1.5-3.12,4.75-2.61-2h0a13.59,13.59,0,0,1-4.82,3h0l.81,3-5.54,1.14-.48-3.24V46a13.68,13.68,0,0,1-4.94-1h0l-1.5,2.7Zm6.92-24.37a8.77,8.77,0,1,1-8.7,8.84v-.07A8.73,8.73,0,0,1,26.55,23.45Z"/><path class="cls-1" d="M27.73,27s0,.51-.45.57c-1.41.18-2.28-.35-3.52,1-.57.63-.29,1.26-.8,1.38s-1.75-.12-1.75.29-.29.45.45.57a2.5,2.5,0,0,0,1,0l-.11,1.08a16.31,16.31,0,0,0-2.28,1.95c-.45.63-.22,1-.61,1.38a1.81,1.81,0,0,1-.92.45.41.41,0,0,0,.3.51h.05c.45.11.57-.18,1-.12s10.86,0,11.69.12a2.39,2.39,0,0,0,2.06-1.89c0-.81.34-1.5,0-1.89a8.72,8.72,0,0,0-2.16-1.6A5.68,5.68,0,0,1,30.3,30a6.78,6.78,0,0,1-1.65-1.38,1.28,1.28,0,0,1,.18-1.09c.16-.2,1.5-1.25.16-1.77-1-.39-1-.26-1.2,1.26Zm1.08,3.44c1.26.68,1.26.22,1.71.91s1,.23,1.3.35.51.22.12.63-.57.4.11.69.4-.41.79,0a1.11,1.11,0,0,1,.18,1.5c-.4.68-.16.36-.69.68-.76.47-3.14-.16-3.28-.18-.48,0,0,.69-.63.35s-.85-.17-.73-1.08.33-.87,0-1.16.48-1-.45-1.36c-.29-.12,0-1.38.61-1.5a1.5,1.5,0,0,1,1,.12ZM24.45,32.1s1.41-.8,1.81-.17.57.63.12,1.08,0,.86-.4,1.26-.51.29-.63.57-1.88-.57-2.21-.16-.18.73-.4.79-1.43,0-1.88,0,1.2-2,2-2.11.53-.18,1.26-.35,1.43-.22.9-.57-.73-.34-.61-.4Z"/></g></g></g></g></svg>