<svg xmlns="http://www.w3.org/2000/svg" viewBox="0 0 62.31 174.52"><defs><style>.cls-1{opacity:0.5;}.cls-2{fill:#231f20;}.cls-3{fill:#002b47;}.cls-4{fill:#00395e;}.cls-5{fill:#c3c0e0;}.cls-6{fill:#fab279;}.cls-7{fill:#e58052;}.cls-8{fill:#001d2f;}.cls-9{fill:#f1f1f1;}.cls-10{fill:#292728;}.cls-11{opacity:0.1;}.cls-12{fill:#8a603d;}.cls-13{fill:#fbbe7d;}.cls-14{fill:#eb9756;}.cls-15{fill:#211e1f;}.cls-16{fill:#80491e;}.cls-17{fill:#9c7758;}.cls-18{fill:#fff;}.cls-19{fill:#bc842c;}.cls-20{fill:#e6e7e8;}.cls-21{fill:#bcbec0;}.cls-22{fill:#f15a24;}.cls-23{fill:#ff0;}.cls-24{fill:#911d22;}.cls-25{fill:#c1272d;}.cls-26{fill:#1a1a1a;}.cls-27{fill:#4d4d4d;}</style></defs><g id="Layer_2" data-name="Layer 2"><g id="Layer_1-2" data-name="Layer 1"><g class="cls-1"><path class="cls-2" d="M3.58,170.69c0,2.12,12.88,3.83,28.77,3.83s28.76-1.71,28.76-3.83-12.88-3.82-28.76-3.82S3.58,168.58,3.58,170.69Z"/></g><path class="cls-3" d="M55.66,60.38l-7.47-6S44,38.27,51.57,39.63L61.4,55.21S63.48,62.75,55.66,60.38Z"/><path class="cls-4" d="M47.92,78.05a223.9,223.9,0,0,1-3.54,48.38c-.3,1.55-2,32.82-1,38.57h-9s-3.9-24.09-.45-39.29l1.33-19.32,1.51-9.58S31.38,124,29.28,128.68,25,165.34,25,165.34l-8.62,0s-2.25-20.94,3-41.51c0,0,2.82-38.06,4.32-45.29Z"/><path d="M34.36,164.92a35.18,35.18,0,0,0,4.47-.28,30.2,30.2,0,0,0,4.42-1.15c2.43,3,9.93,4.08,10.24,4.86-2.91,4.3-18.92.07-18.92.07S34.49,167.13,34.36,164.92Z"/><path class="cls-5" d="M46.46,59.88,46,62.1l.78.88v3.1l1.52-.39a55.73,55.73,0,0,0,1.74-11.32c0-4.7-.24-8.72-.24-8.72L45.66,55.78l-.3,2.11Z"/><polygon class="cls-3" points="26.75 30.2 31.04 29.75 36.19 30.58 38.71 32.08 38.38 35.29 35.06 33.24 30.85 32.55 25.57 33.44 26.75 30.2"/><path class="cls-6" d="M28.3,26s0,7.75-1.55,11,10.19,6.76,10.19,6.76,5-3.21,2.88-6.2-2.55-9-2.55-9Z"/><path class="cls-7" d="M34,35.61c1.13,1,2.75,2.36,4.31,2.59.66.1,1.06-.36,1.31-1-1.92-3.08-2.34-8.65-2.34-8.65L28.3,26s0,.55,0,1.41A27.68,27.68,0,0,0,34,35.61Z"/><path class="cls-4" d="M51.45,39.39c-.55-.51-12.07-5.87-12.07-5.87l-2,7.2-11-7.87S15.24,39.6,14.56,40.28c-.43.43,2.93,9.57,5.42,16.15,1.42,3.75,1.29,2.78,2.56,6.66s.55,13.52.55,13.52L42.2,79.49l5.64-1,.68-7.08L49.9,47.25S52,39.9,51.45,39.39Z"/><path class="cls-5" d="M24.31,75.61a42.09,42.09,0,0,0,5.77-4.1c1.43-1.42.17-3.23-.44-4.75-.52-1.29-1-2.6-1.54-3.89-1.11-2.73-2.26-5.44-3.37-8.17-.9-2.23-1.57-4.68-2.69-6.81-1.27-2.43-4.26-3.42-6.71-4.35,1.08,3.35,3,8.65,4.65,12.89,1.42,3.75,1.29,2.78,2.56,6.66,1.17,3.56.66,11.92.56,13.32Z"/><path class="cls-8" d="M35,35.29l.26,3.93c-4-.3-9.6-5.88-9.6-5.88l1.14-3.14Z"/><path class="cls-9" d="M37.4,41.45a.54.54,0,0,0,0,1.08.54.54,0,0,0,0-1.08Z"/><path class="cls-9" d="M37.45,52.33a.54.54,0,0,0-.54.54.54.54,0,0,0,1.08,0A.54.54,0,0,0,37.45,52.33Z"/><path class="cls-9" d="M37.51,63.2a.54.54,0,0,0,0,1.08.54.54,0,0,0,0-1.08Z"/><path class="cls-9" d="M39.17,74.07a.54.54,0,0,0-.54.54.54.54,0,0,0,1.08,0A.54.54,0,0,0,39.17,74.07Z"/><polygon class="cls-10" points="32.2 81.03 31.2 81.01 31.27 77.38 32.27 77.5 32.2 81.03"/><polygon class="cls-10" points="45.06 81.48 44.07 81.39 44.35 78.18 45.34 78.14 45.06 81.48"/><polygon class="cls-10" points="26.67 79.43 25.55 79.29 25.65 76.8 26.66 77.06 26.67 79.43"/><g class="cls-11"><polygon points="37.33 96.99 42.31 93.61 41.87 94.72 38.99 96.77 43.31 96.6 43.15 96.99 39.16 97.87 41.48 98.26 39.88 98.87 38.94 98.7 43.31 106.11 41.71 104.74 37.33 96.99"/></g><path class="cls-3" d="M26.75,30.2,35,35.29s-.77,3.19-3.33,4.1l-6-6Z"/><path class="cls-8" d="M38.45,34.6s1,3.7,4,4.46l-2-5.32-1.77-1.66Z"/><path class="cls-3" d="M40.48,33.74,38.1,38.12a20.43,20.43,0,0,0,.75-3.27,13.26,13.26,0,0,0-.14-2.77Z"/><path d="M25,165.34c-.43-3.06-8.45-2.38-8.62,0s-1.25,3.49-1.25,4.88S15,174,19.77,174s5.89-2,5.89-3.72S25.43,168.4,25,165.34Z"/><path class="cls-12" d="M24.86,16.16c.24,3.36,1.37,6,2.52,5.94s1.89-2.87,1.65-6.23-1.36-6-2.51-5.94S24.62,12.8,24.86,16.16Z"/><path class="cls-13" d="M25,20.32c.38,1.46,1.43,2.46,2.36,2.22s1.36-1.61,1-3.08S26.89,17,26,17.24,24.6,18.85,25,20.32Z"/><path class="cls-12" d="M43.37,11.2c1.09,8.63-1.82,13.4-1.82,13.4s-3.84-6.85-4.09-11.15.53-5.1,2.7-5.26S43.37,11.2,43.37,11.2Z"/><path class="cls-12" d="M25.71,10.5C24,19,28,24.1,28,24.1s4.69-6.52,5.22-10.79-.29-5.14-2.72-5.49S25.71,10.5,25.71,10.5Z"/><path class="cls-13" d="M35.1,8.67c7.46.24,7.68,7.25,7.68,8.1v.15c-.07.78-.74,8-1.51,9.33-.63,1.12-3.36,3.38-4.51,4.31a1.74,1.74,0,0,1-1.16.38h-.36l-1.72-.05-.36,0A1.71,1.71,0,0,1,32,30.4c-1.09-1-3.67-3.43-4.23-4.59-.68-1.4-.88-8.62-.9-9.4v-.15C27,15.41,27.64,8.43,35.1,8.67Z"/><path class="cls-7" d="M42.75,16.14c-.15-2-1.17-7.26-7.65-7.47-5.9-.19-7.56,4.13-8,6.36A29.5,29.5,0,0,0,42.75,16.14Z"/><path class="cls-14" d="M35.1,8.67a7.24,7.24,0,0,0-6.58,2.94h0l-.06.1-.14.2h0a9.92,9.92,0,0,0-1.42,4.36v.15c0,.44.08,2.92.26,5.26a15.87,15.87,0,0,1,0,1.89,26.4,26.4,0,0,0,1-5.17,29.52,29.52,0,0,1,.49-6.15c2.36-.46,4.89-.8,6.82.37.86.52,2.11,1,3,1.48a5.53,5.53,0,0,0,2.81,1.09,12.72,12.72,0,0,1,1.45.19C42.3,13.06,40.85,8.85,35.1,8.67Z"/><path class="cls-15" d="M39.79,17.84c-.52-.07-1,.47-1.06,1.22s.3,1.41.82,1.49,1-.47,1.06-1.22S40.31,17.92,39.79,17.84Z"/><path class="cls-15" d="M32.9,17.7c-.52-.08-1,.47-1.06,1.21s.3,1.42.82,1.49,1-.47,1.06-1.21S33.42,17.78,32.9,17.7Z"/><path class="cls-16" d="M30,16a9.81,9.81,0,0,1,6-.33c.23.06.43,1.09.24,1.1l-.16,0a12.84,12.84,0,0,0-5.6-.11.68.68,0,0,1-.7-.2C29.58,16.3,29.7,16.1,30,16Z"/><path class="cls-16" d="M42.82,16.4c.22.08-1.43-2.82-4.1-.47-.18.18.09,1.22.21,1.13A.38.38,0,0,0,39,17c1.83-2,3.44-.15,3.26-.2a.33.33,0,0,0,.43.1A.33.33,0,0,0,42.82,16.4Z"/><path class="cls-12" d="M28.61,6.9A7.2,7.2,0,0,1,32,4.09a7.42,7.42,0,0,1,2-.61,7.05,7.05,0,0,1,4.28,1.09c1.3.75,2.46,1.72,3.71,2.55a3.06,3.06,0,0,0,.73.4,19,19,0,0,1,.75,6.22c-.2.06-.41.12-.64.17,0,0-2.17.25-3.25-.66A13.21,13.21,0,0,0,35,10.92a7.06,7.06,0,0,0-5,.34,1.28,1.28,0,0,1-.91.22.92.92,0,0,1-.42-.36A3.9,3.9,0,0,1,28.61,6.9Z"/><path class="cls-17" d="M31.39,4.39l.61-.3a7.42,7.42,0,0,1,2-.61,7.05,7.05,0,0,1,4.28,1.09c1.3.75,2.46,1.72,3.71,2.55a3.06,3.06,0,0,0,.73.4,22.72,22.72,0,0,1,.75,4.17,10.4,10.4,0,0,1-4.89-1.23,24,24,0,0,0-4.5-1.89,6.65,6.65,0,0,1-2.63-1C30.45,6.68,30.94,5.42,31.39,4.39Z"/><path class="cls-12" d="M27.61,24.72c-.44-1.17,0-12.09,0-12.09s-1.12,3.26-1.16,3.31C25.35,17.64,26.53,24.25,27.61,24.72Z"/><path class="cls-18" d="M35.78,27c1.7.26,3.15-1.18,3.06-1.47l0,0a11.33,11.33,0,0,1-5.5-.57A4,4,0,0,0,35.78,27Z"/><path class="cls-7" d="M37.67,22.76c.1.28.1.23,0,.43a1.89,1.89,0,0,1-.32.37c-.2.24.6.23.75,0a3.11,3.11,0,0,0,.52-.62c.09-.25,0-.36-.17-.52a3.31,3.31,0,0,1-.64-1.7C37.78,20.49,37.33,21.83,37.67,22.76Z"/><path class="cls-19" d="M38.87,13.53C38.87,3.45,37.77,2,37,.6A11.16,11.16,0,0,0,34.69.34h-.6c-.24,0-.48,0-.72,0C33.61.59,36,1.45,36,13.53Z"/><path class="cls-20" d="M44.64,11.83V9.13c0-4.83-4.48-8.79-10-8.79h-.6c-5.47,0-10,4-10,8.79V12.6c0,.29,0,.9,0,.93C24.72,15,29.93,16.11,35,16.11S46.72,15,46.72,13.53C46.72,12.86,45.92,12.27,44.64,11.83Z"/><path class="cls-21" d="M44.2,11.83s-4.44,1.79-17.12,1.7C27.08,13.53,40.22,15.39,44.2,11.83Z"/><path class="cls-21" d="M38.24.93a11.89,11.89,0,0,0-2.1-.48c.17.42.32.83.47,1.2a18.06,18.06,0,0,1,1,4.7c.33,2.46.6,4.78.72,7.18l1.06-.26C39.55,11.19,39.45,3.45,38.24.93Z"/><path class="cls-20" d="M39.12,12.92C39.12,2.84,38,1.61,37.27.26A11.16,11.16,0,0,0,34.94,0h-.6c-.24,0-.48,0-.71,0,.24.22,2.43,1,2.64,13.16Z"/><path class="cls-21" d="M33.63,0a1.6,1.6,0,0,0-1.12.42s.57-.08.86-.08c0,0,2.29,3.33,2.59,12.87h.32S36.24,1.73,33.63,0Z"/><path class="cls-22" d="M25.61,33.34,13.67,40.7s10.45,25.71,8.47,36.1-.77,10.55-.77,10.55c5,1.16,10,2.47,13.55,1C34.92,88.36,38.05,50.64,25.61,33.34Z"/><path class="cls-23" d="M21.2,64.51a47.63,47.63,0,0,1,1.19,8.92,106.52,106.52,0,0,0,12.84,1c0-2.67-.17-5.59-.41-8.64A97.79,97.79,0,0,1,21.2,64.51Z"/><path class="cls-22" d="M40.48,33.74s7.35,19.95,2.83,54.19a7.94,7.94,0,0,0,6.75,0s-.18-7.54-.61-10.61,2-37.93,2-37.93S45.19,36,40.48,33.74Z"/><path class="cls-23" d="M15.92,46.67c.91,2.53,2,5.67,3,9,3.78.4,9,.82,14.87,1A83.78,83.78,0,0,0,32,48C24.78,47.7,18.89,47.05,15.92,46.67Z"/><path class="cls-23" d="M50.9,47.62c-2.45.22-4.9.35-7.3.43.35,2.54.65,5.42.86,8.59,1.94-.07,3.91-.17,5.88-.33C50.53,53.23,50.73,50.23,50.9,47.62Z"/><path class="cls-23" d="M49.85,64.82c-1.69.31-3.39.54-5.07.71q0,4.09-.21,8.67c1.61-.14,3.24-.32,4.88-.57C49.52,71.34,49.66,68.24,49.85,64.82Z"/><path class="cls-6" d="M52.29,37.09s1,.67,2.16,3.63,9.71,15,7.49,19-4.08,2.32-6.41,1-4-16.77-6.6-21Z"/><path class="cls-24" d="M46.34,29.51l3.43.31,1.19.62c.21-.58-1.27-2.15-1.88-2.21l-4-.37a1,1,0,0,0-1,.64L40.3,39.33c-.2.59.91,2.64,1.53,2.7l-.17-1.38,3.69-10.51A1,1,0,0,1,46.34,29.51Z"/><path class="cls-25" d="M50.32,29.88l-.55-.06-3.43-.31a1,1,0,0,0-1,.63L41.66,40.65l-.11.33a.94.94,0,0,0,.81,1.26l4,.37a1,1,0,0,0,1-.63l3.8-10.84A.94.94,0,0,0,50.32,29.88Z"/><path d="M49.24,29.28l-.1,0a.43.43,0,0,1-.26-.55l2.76-7.77a.43.43,0,1,1,.81.29L49.69,29A.43.43,0,0,1,49.24,29.28Z"/><path d="M46.75,29a.16.16,0,0,1-.1,0,.41.41,0,0,1-.27-.54l.38-1.14a.43.43,0,1,1,.81.27l-.38,1.14A.42.42,0,0,1,46.75,29Z"/><path d="M48.07,29.1l-.09,0a.43.43,0,0,1-.28-.54l.38-1.15a.43.43,0,1,1,.82.28l-.38,1.14A.43.43,0,0,1,48.07,29.1Z"/><path class="cls-13" d="M41.08,40.25c.3-.09,1.9.61,2.26.6S44.8,41,44.8,41a9,9,0,0,0,2.6.28c1-.14,3.44-.15,5.36-3.65.6-1.09.15-2.16-.23-3.78A10.49,10.49,0,0,1,53.18,29c.23-.37-1.12-1-1.85.1a8.58,8.58,0,0,0-.88,3.24l-.25.76a21.06,21.06,0,0,0-1.17-2,12.73,12.73,0,0,0-2.17-1.32c-.79-.45-.74.49-.65.82a16,16,0,0,0,1.73,2A8.63,8.63,0,0,1,49,34.89c0,.6-.69.94-.69.94l-2.12-.78s-2-1.16-2.44-.42,1.62,1.88,1.62,1.88,1.12.35,1.94.68c0,0-.38.62-.79.65s-1.86-.06-1.86-.06-1.81-.87-2.57,0a.39.39,0,0,0,.19.54c.36.17,1.95.82,1.95.82l1.48.21-.08.12-1.52.18s-.76-.16-1.87-.3S40.78,40.35,41.08,40.25Z"/><path class="cls-26" d="M.52,82.59l22,1.18a.48.48,0,0,1,.46.46l.63,15.88s-.12.33-.12.34a1.37,1.37,0,0,0,.36-.73L23.2,83.84a.5.5,0,0,0-.47-.47L.75,82.2c-.28,0-.72.48-.73.75C.1,82.9.41,82.58.52,82.59Z"/><path class="cls-10" d="M23.59,100.15v0L23,84.23a.48.48,0,0,0-.46-.46l-22-1.18a.44.44,0,0,0-.28.08A.46.46,0,0,0,0,83.1L.63,99a.49.49,0,0,0,.46.47l22,1.18A.49.49,0,0,0,23.59,100.15Z"/><path class="cls-27" d="M21.7,86a.38.38,0,1,0-.73.18.36.36,0,0,0,.45.27A.37.37,0,0,0,21.7,86Z"/><path class="cls-26" d="M21.91,86a.6.6,0,0,0-.72-.42.59.59,0,1,0,.29,1.14A.6.6,0,0,0,21.91,86Zm-.94.24A.38.38,0,1,1,21.7,86a.37.37,0,0,1-.28.45A.36.36,0,0,1,21,86.22Z"/><path class="cls-6" d="M9.57,90.66l-.93,2.2s-1.17,8.2-.63,8.31S9.5,99.89,9.5,99.89s-.37,1.68.26,1.78,1.57-1.52,1.57-1.52-.46,1.74.24,1.41a6.27,6.27,0,0,0,1.6-1.91s-1.05,1.92,0,1.73c2.07-.37,1.71-5.31,1.71-5.31s.74,3.85,1.49,3.11c.32-.32.79-2.85-.11-4-1.33-1.73-3-3.58-3-3.58Z"/><path class="cls-6" d="M13.68,40.7A93.29,93.29,0,0,0,6.6,66.26c-.44,6.84,1.12,16.39,2.94,24.4l3.79,1c.4-8.61,1.89-21.23,1.51-25.35l4.35-10C21.8,49.18,22,42.32,13.68,40.7Z"/><path class="cls-4" d="M11.41,65.33c1.27,0,2.53.08,3.8.11l4-9.19C21.8,49.18,22,42.32,13.68,40.7A93.58,93.58,0,0,0,6.79,64.91C8.33,65,9.86,65.28,11.41,65.33Z"/><path class="cls-3" d="M5.77,63.46c.31-.66,9.76.72,9.9,1.73s.58,4.45-.14,4.88-9.76-.43-10.19-.72S4.48,66.19,5.77,63.46Z"/><g class="cls-1"><path class="cls-18" d="M26.78,9.89a.66.66,0,0,1-.65-.62,7.06,7.06,0,0,1,2-5.23,5.34,5.34,0,0,1,3.53-1.82.65.65,0,1,1,0,1.29,4.09,4.09,0,0,0-2.59,1.42,5.78,5.78,0,0,0-1.62,4.28.66.66,0,0,1-.62.68Z"/></g></g></g></svg>